<svg xmlns="http://www.w3.org/2000/svg" version="1.1" xmlns:xlink="http://www.w3.org/1999/xlink" xmlns:svgjs="http://svgjs.dev/svgjs" width="3840" height="2160" preserveAspectRatio="none" viewBox="0 0 3840 2160"><g mask="url(&quot;#SvgjsMask4709&quot;)" fill="none"><rect width="3840" height="2160" x="0" y="0" fill="url(&quot;#SvgjsLinearGradient4710&quot;)"></rect><path d="M3009 343L3008 -785" stroke-width="6" stroke="url(&quot;#SvgjsLinearGradient4711&quot;)" stroke-linecap="round" class="Down"></path><path d="M612 1777L611 2375" stroke-width="8" stroke="url(&quot;#SvgjsLinearGradient4711&quot;)" stroke-linecap="round" class="Down"></path><path d="M20 1615L19 2927" stroke-width="8" stroke="url(&quot;#SvgjsLinearGradient4712&quot;)" stroke-linecap="round" class="Up"></path><path d="M364 1498L363 541" stroke-width="10" stroke="url(&quot;#SvgjsLinearGradient4713&quot;)" stroke-linecap="round" class="Up"></path><path d="M1906 2146L1905 890" stroke-width="6" stroke="url(&quot;#SvgjsLinearGradient4712&quot;)" stroke-linecap="round" class="Up"></path><path d="M2885 575L2884 -902" stroke-width="8" stroke="url(&quot;#SvgjsLinearGradient4711&quot;)" stroke-linecap="round" class="Down"></path><path d="M2077 463L2076 -996" stroke-width="10" stroke="url(&quot;#SvgjsLinearGradient4712&quot;)" stroke-linecap="round" class="Up"></path><path d="M1542 1172L1541 2144" stroke-width="6" stroke="url(&quot;#SvgjsLinearGradient4714&quot;)" stroke-linecap="round" class="Down"></path><path d="M30 1989L29 590" stroke-width="8" stroke="url(&quot;#SvgjsLinearGradient4714&quot;)" stroke-linecap="round" class="Down"></path><path d="M3116 1089L3115 2546" stroke-width="8" stroke="url(&quot;#SvgjsLinearGradient4711&quot;)" stroke-linecap="round" class="Down"></path><path d="M1911 144L1910 -523" stroke-width="8" stroke="url(&quot;#SvgjsLinearGradient4711&quot;)" stroke-linecap="round" class="Down"></path><path d="M1827 2117L1826 1543" stroke-width="8" stroke="url(&quot;#SvgjsLinearGradient4712&quot;)" stroke-linecap="round" class="Up"></path><path d="M3525 143L3524 -899" stroke-width="6" stroke="url(&quot;#SvgjsLinearGradient4714&quot;)" stroke-linecap="round" class="Down"></path><path d="M1657 1465L1656 103" stroke-width="10" stroke="url(&quot;#SvgjsLinearGradient4711&quot;)" stroke-linecap="round" class="Down"></path><path d="M3615 2013L3614 981" stroke-width="8" stroke="url(&quot;#SvgjsLinearGradient4712&quot;)" stroke-linecap="round" class="Up"></path><path d="M3485 2109L3484 2755" stroke-width="10" stroke="url(&quot;#SvgjsLinearGradient4712&quot;)" stroke-linecap="round" class="Up"></path><path d="M2546 321L2545 -599" stroke-width="6" stroke="url(&quot;#SvgjsLinearGradient4714&quot;)" stroke-linecap="round" class="Down"></path><path d="M2301 2135L2300 1388" stroke-width="8" stroke="url(&quot;#SvgjsLinearGradient4713&quot;)" stroke-linecap="round" class="Up"></path><path d="M13 1808L12 1107" stroke-width="8" stroke="url(&quot;#SvgjsLinearGradient4713&quot;)" stroke-linecap="round" class="Up"></path><path d="M1255 211L1254 1061" stroke-width="10" stroke="url(&quot;#SvgjsLinearGradient4714&quot;)" stroke-linecap="round" class="Down"></path><path d="M2203 1704L2202 397" stroke-width="10" stroke="url(&quot;#SvgjsLinearGradient4711&quot;)" stroke-linecap="round" class="Down"></path><path d="M767 43L766 1405" stroke-width="10" stroke="url(&quot;#SvgjsLinearGradient4711&quot;)" stroke-linecap="round" class="Down"></path><path d="M1753 1514L1752 2721" stroke-width="10" stroke="url(&quot;#SvgjsLinearGradient4711&quot;)" stroke-linecap="round" class="Down"></path><path d="M2278 883L2277 1648" stroke-width="10" stroke="url(&quot;#SvgjsLinearGradient4713&quot;)" stroke-linecap="round" class="Up"></path><path d="M617 1335L616 -4" stroke-width="8" stroke="url(&quot;#SvgjsLinearGradient4713&quot;)" stroke-linecap="round" class="Up"></path><path d="M2490 37L2489 -1389" stroke-width="10" stroke="url(&quot;#SvgjsLinearGradient4714&quot;)" stroke-linecap="round" class="Down"></path><path d="M3224 1538L3223 625" stroke-width="8" stroke="url(&quot;#SvgjsLinearGradient4711&quot;)" stroke-linecap="round" class="Down"></path><path d="M3481 1416L3480 2334" stroke-width="8" stroke="url(&quot;#SvgjsLinearGradient4713&quot;)" stroke-linecap="round" class="Up"></path><path d="M2436 887L2435 1614" stroke-width="8" stroke="url(&quot;#SvgjsLinearGradient4711&quot;)" stroke-linecap="round" class="Down"></path><path d="M318 1246L317 -335" stroke-width="6" stroke="url(&quot;#SvgjsLinearGradient4714&quot;)" stroke-linecap="round" class="Down"></path><path d="M1465 621L1464 -666" stroke-width="10" stroke="url(&quot;#SvgjsLinearGradient4712&quot;)" stroke-linecap="round" class="Up"></path><path d="M480 258L479 -390" stroke-width="8" stroke="url(&quot;#SvgjsLinearGradient4711&quot;)" stroke-linecap="round" class="Down"></path><path d="M1342 1276L1341 689" stroke-width="10" stroke="url(&quot;#SvgjsLinearGradient4714&quot;)" stroke-linecap="round" class="Down"></path><path d="M1896 871L1895 -515" stroke-width="6" stroke="url(&quot;#SvgjsLinearGradient4713&quot;)" stroke-linecap="round" class="Up"></path><path d="M2007 1713L2006 2618" stroke-width="8" stroke="url(&quot;#SvgjsLinearGradient4712&quot;)" stroke-linecap="round" class="Up"></path><path d="M1629 1835L1628 590" stroke-width="8" stroke="url(&quot;#SvgjsLinearGradient4713&quot;)" stroke-linecap="round" class="Up"></path><path d="M3639 172L3638 -1266" stroke-width="6" stroke="url(&quot;#SvgjsLinearGradient4712&quot;)" stroke-linecap="round" class="Up"></path><path d="M3745 286L3744 1817" stroke-width="10" stroke="url(&quot;#SvgjsLinearGradient4712&quot;)" stroke-linecap="round" class="Up"></path><path d="M3637 1813L3636 2596" stroke-width="8" stroke="url(&quot;#SvgjsLinearGradient4713&quot;)" stroke-linecap="round" class="Up"></path><path d="M522 962L521 -383" stroke-width="10" stroke="url(&quot;#SvgjsLinearGradient4714&quot;)" stroke-linecap="round" class="Down"></path><path d="M2965 1263L2964 311" stroke-width="6" stroke="url(&quot;#SvgjsLinearGradient4713&quot;)" stroke-linecap="round" class="Up"></path><path d="M961 47L960 -958" stroke-width="8" stroke="url(&quot;#SvgjsLinearGradient4711&quot;)" stroke-linecap="round" class="Down"></path><path d="M1657 1860L1656 2599" stroke-width="8" stroke="url(&quot;#SvgjsLinearGradient4712&quot;)" stroke-linecap="round" class="Up"></path><path d="M1220 689L1219 1377" stroke-width="6" stroke="url(&quot;#SvgjsLinearGradient4712&quot;)" stroke-linecap="round" class="Up"></path><path d="M3259 413L3258 -872" stroke-width="6" stroke="url(&quot;#SvgjsLinearGradient4712&quot;)" stroke-linecap="round" class="Up"></path><path d="M2268 804L2267 -379" stroke-width="10" stroke="url(&quot;#SvgjsLinearGradient4714&quot;)" stroke-linecap="round" class="Down"></path><path d="M3487 861L3486 -138" stroke-width="6" stroke="url(&quot;#SvgjsLinearGradient4711&quot;)" stroke-linecap="round" class="Down"></path><path d="M914 1160L913 2067" stroke-width="6" stroke="url(&quot;#SvgjsLinearGradient4713&quot;)" stroke-linecap="round" class="Up"></path><path d="M1579 914L1578 1588" stroke-width="8" stroke="url(&quot;#SvgjsLinearGradient4714&quot;)" stroke-linecap="round" class="Down"></path><path d="M1489 2003L1488 649" stroke-width="10" stroke="url(&quot;#SvgjsLinearGradient4711&quot;)" stroke-linecap="round" class="Down"></path><path d="M119 108L118 1156" stroke-width="6" stroke="url(&quot;#SvgjsLinearGradient4714&quot;)" stroke-linecap="round" class="Down"></path><path d="M3687 327L3686 1490" stroke-width="10" stroke="url(&quot;#SvgjsLinearGradient4711&quot;)" stroke-linecap="round" class="Down"></path><path d="M328 806L327 97" stroke-width="8" stroke="url(&quot;#SvgjsLinearGradient4713&quot;)" stroke-linecap="round" class="Up"></path><path d="M3671 1879L3670 1329" stroke-width="10" stroke="url(&quot;#SvgjsLinearGradient4714&quot;)" stroke-linecap="round" class="Down"></path><path d="M2289 123L2288 1622" stroke-width="6" stroke="url(&quot;#SvgjsLinearGradient4711&quot;)" stroke-linecap="round" class="Down"></path><path d="M2034 205L2033 -1065" stroke-width="8" stroke="url(&quot;#SvgjsLinearGradient4714&quot;)" stroke-linecap="round" class="Down"></path><path d="M3094 1221L3093 -327" stroke-width="10" stroke="url(&quot;#SvgjsLinearGradient4711&quot;)" stroke-linecap="round" class="Down"></path><path d="M541 71L540 -588" stroke-width="6" stroke="url(&quot;#SvgjsLinearGradient4713&quot;)" stroke-linecap="round" class="Up"></path><path d="M1401 1063L1400 2143" stroke-width="8" stroke="url(&quot;#SvgjsLinearGradient4714&quot;)" stroke-linecap="round" class="Down"></path><path d="M1959 1279L1958 2566" stroke-width="8" stroke="url(&quot;#SvgjsLinearGradient4712&quot;)" stroke-linecap="round" class="Up"></path><path d="M127 1352L126 2375" stroke-width="10" stroke="url(&quot;#SvgjsLinearGradient4714&quot;)" stroke-linecap="round" class="Down"></path><path d="M3305 290L3304 1701" stroke-width="8" stroke="url(&quot;#SvgjsLinearGradient4711&quot;)" stroke-linecap="round" class="Down"></path><path d="M3241 1456L3240 796" stroke-width="10" stroke="url(&quot;#SvgjsLinearGradient4713&quot;)" stroke-linecap="round" class="Up"></path><path d="M738 1852L737 495" stroke-width="10" stroke="url(&quot;#SvgjsLinearGradient4712&quot;)" stroke-linecap="round" class="Up"></path><path d="M3751 1961L3750 703" stroke-width="6" stroke="url(&quot;#SvgjsLinearGradient4711&quot;)" stroke-linecap="round" class="Down"></path><path d="M2690 88L2689 -1362" stroke-width="6" stroke="url(&quot;#SvgjsLinearGradient4711&quot;)" stroke-linecap="round" class="Down"></path><path d="M1890 2100L1889 3019" stroke-width="6" stroke="url(&quot;#SvgjsLinearGradient4713&quot;)" stroke-linecap="round" class="Up"></path><path d="M2672 1062L2671 65" stroke-width="10" stroke="url(&quot;#SvgjsLinearGradient4711&quot;)" stroke-linecap="round" class="Down"></path><path d="M3147 1845L3146 3422" stroke-width="8" stroke="url(&quot;#SvgjsLinearGradient4711&quot;)" stroke-linecap="round" class="Down"></path><path d="M203 1631L202 994" stroke-width="6" stroke="url(&quot;#SvgjsLinearGradient4711&quot;)" stroke-linecap="round" class="Down"></path><path d="M2908 531L2907 1581" stroke-width="8" stroke="url(&quot;#SvgjsLinearGradient4712&quot;)" stroke-linecap="round" class="Up"></path><path d="M1703 606L1702 -629" stroke-width="6" stroke="url(&quot;#SvgjsLinearGradient4712&quot;)" stroke-linecap="round" class="Up"></path><path d="M3825 513L3824 -1095" stroke-width="8" stroke="url(&quot;#SvgjsLinearGradient4711&quot;)" stroke-linecap="round" class="Down"></path><path d="M1799 1483L1798 3085" stroke-width="8" stroke="url(&quot;#SvgjsLinearGradient4714&quot;)" stroke-linecap="round" class="Down"></path><path d="M3588 1677L3587 3255" stroke-width="6" stroke="url(&quot;#SvgjsLinearGradient4714&quot;)" stroke-linecap="round" class="Down"></path><path d="M1782 1516L1781 2269" stroke-width="6" stroke="url(&quot;#SvgjsLinearGradient4713&quot;)" stroke-linecap="round" class="Up"></path><path d="M3470 212L3469 1491" stroke-width="8" stroke="url(&quot;#SvgjsLinearGradient4711&quot;)" stroke-linecap="round" class="Down"></path><path d="M1800 70L1799 1247" stroke-width="6" stroke="url(&quot;#SvgjsLinearGradient4713&quot;)" stroke-linecap="round" class="Up"></path><path d="M2076 448L2075 1743" stroke-width="8" stroke="url(&quot;#SvgjsLinearGradient4712&quot;)" stroke-linecap="round" class="Up"></path><path d="M684 1374L683 446" stroke-width="10" stroke="url(&quot;#SvgjsLinearGradient4711&quot;)" stroke-linecap="round" class="Down"></path><path d="M2893 2080L2892 2857" stroke-width="10" stroke="url(&quot;#SvgjsLinearGradient4712&quot;)" stroke-linecap="round" class="Up"></path><path d="M3145 175L3144 -972" stroke-width="6" stroke="url(&quot;#SvgjsLinearGradient4712&quot;)" stroke-linecap="round" class="Up"></path><path d="M3229 1467L3228 418" stroke-width="6" stroke="url(&quot;#SvgjsLinearGradient4713&quot;)" stroke-linecap="round" class="Up"></path><path d="M2164 1167L2163 2708" stroke-width="6" stroke="url(&quot;#SvgjsLinearGradient4714&quot;)" stroke-linecap="round" class="Down"></path><path d="M282 565L281 1462" stroke-width="6" stroke="url(&quot;#SvgjsLinearGradient4711&quot;)" stroke-linecap="round" class="Down"></path><path d="M294 1710L293 317" stroke-width="10" stroke="url(&quot;#SvgjsLinearGradient4714&quot;)" stroke-linecap="round" class="Down"></path><path d="M3530 1188L3529 -231" stroke-width="10" stroke="url(&quot;#SvgjsLinearGradient4714&quot;)" stroke-linecap="round" class="Down"></path><path d="M2525 785L2524 -801" stroke-width="10" stroke="url(&quot;#SvgjsLinearGradient4711&quot;)" stroke-linecap="round" class="Down"></path><path d="M2199 425L2198 -400" stroke-width="10" stroke="url(&quot;#SvgjsLinearGradient4713&quot;)" stroke-linecap="round" class="Up"></path><path d="M2609 585L2608 -592" stroke-width="6" stroke="url(&quot;#SvgjsLinearGradient4712&quot;)" stroke-linecap="round" class="Up"></path><path d="M418 271L417 -1018" stroke-width="6" stroke="url(&quot;#SvgjsLinearGradient4711&quot;)" stroke-linecap="round" class="Down"></path><path d="M589 614L588 1248" stroke-width="6" stroke="url(&quot;#SvgjsLinearGradient4712&quot;)" stroke-linecap="round" class="Up"></path><path d="M3413 436L3412 1679" stroke-width="6" stroke="url(&quot;#SvgjsLinearGradient4712&quot;)" stroke-linecap="round" class="Up"></path><path d="M506 607L505 -274" stroke-width="6" stroke="url(&quot;#SvgjsLinearGradient4711&quot;)" stroke-linecap="round" class="Down"></path><path d="M3537 1740L3536 3355" stroke-width="10" stroke="url(&quot;#SvgjsLinearGradient4713&quot;)" stroke-linecap="round" class="Up"></path><path d="M1394 938L1393 2167" stroke-width="8" stroke="url(&quot;#SvgjsLinearGradient4712&quot;)" stroke-linecap="round" class="Up"></path></g><defs><mask id="SvgjsMask4709"><rect width="3840" height="2160" fill="#ffffff"></rect></mask><linearGradient x1="10.94%" y1="-19.44%" x2="89.06%" y2="119.44%" gradientUnits="userSpaceOnUse" id="SvgjsLinearGradient4710"><stop stop-color="rgba(14, 42, 71, 1)" offset="0"></stop><stop stop-color="rgba(60, 65, 66, 1)" offset="1"></stop></linearGradient><linearGradient x1="0%" y1="0%" x2="0%" y2="100%" id="SvgjsLinearGradient4711"><stop stop-color="rgba(4, 217, 255, 0)" offset="0"></stop><stop stop-color="rgba(4, 217, 255, 1)" offset="1"></stop></linearGradient><linearGradient x1="0%" y1="100%" x2="0%" y2="0%" id="SvgjsLinearGradient4712"><stop stop-color="rgba(20, 8, 14, 0)" offset="0"></stop><stop stop-color="rgba(20, 8, 14, 1)" offset="1"></stop></linearGradient><linearGradient x1="0%" y1="100%" x2="0%" y2="0%" id="SvgjsLinearGradient4713"><stop stop-color="rgba(4, 217, 255, 0)" offset="0"></stop><stop stop-color="rgba(4, 217, 255, 1)" offset="1"></stop></linearGradient><linearGradient x1="0%" y1="0%" x2="0%" y2="100%" id="SvgjsLinearGradient4714"><stop stop-color="rgba(20, 8, 14, 0)" offset="0"></stop><stop stop-color="rgba(20, 8, 14, 1)" offset="1"></stop></linearGradient></defs></svg>